<?xml version="1.0" encoding="UTF-8" standalone="no"?>
<!-- Created with Inkscape (http://www.inkscape.org/) -->

<svg
   width="493.85309"
   height="427.82556"
   viewBox="0 0 130.66529 113.19551"
   version="1.1"
   id="svg5"
   sodipodi:docname="TolkProjectIcon"
   xmlns:inkscape="http://www.inkscape.org/namespaces/inkscape"
   xmlns:sodipodi="http://sodipodi.sourceforge.net/DTD/sodipodi-0.dtd"
   xmlns:xlink="http://www.w3.org/1999/xlink"
   xmlns="http://www.w3.org/2000/svg"
   xmlns:svg="http://www.w3.org/2000/svg">
  <sodipodi:namedview
     id="namedview26"
     pagecolor="#ffffff"
     bordercolor="#000000"
     borderopacity="0.25"
     inkscape:showpageshadow="2"
     inkscape:pageopacity="0.0"
     inkscape:pagecheckerboard="0"
     inkscape:deskcolor="#d1d1d1"
     showgrid="false"
     inkscape:zoom="0.59972221"
     inkscape:cx="561.92683"
     inkscape:cy="397.68412"
     inkscape:window-width="1366"
     inkscape:window-height="704"
     inkscape:window-x="0"
     inkscape:window-y="0"
     inkscape:window-maximized="1"
     inkscape:current-layer="svg5" />
  <defs
     id="defs2">
    <linearGradient
       id="linearGradient7086">
      <stop
         style="stop-color:#77216f;stop-opacity:1;"
         offset="0"
         id="stop7082" />
      <stop
         style="stop-color:#fb4c16;stop-opacity:1;"
         offset="1"
         id="stop7084" />
    </linearGradient>
    <linearGradient
       xlink:href="#linearGradient7086"
       id="linearGradient6239"
       x1="48.835735"
       y1="279.5466"
       x2="213.42068"
       y2="231.14783"
       gradientUnits="userSpaceOnUse"
       gradientTransform="matrix(0.56731713,0,0,0.56731713,63.450009,-4.6042303)" />
  </defs>
  <g
     id="layer1"
     inkscape:export-filename="../67b43bac/tolk-logo.svg"
     inkscape:export-xdpi="96"
     inkscape:export-ydpi="96"
     transform="translate(-83.167351,-48.40224)">
    <path
       id="path5025"
       style="color:#000000;fill:url(#linearGradient6239);fill-opacity:1;stroke-width:0.567388;stroke-linecap:round;stroke-dasharray:none"
       d="m 198.49256,48.402242 c -0.19918,1.74e-4 -0.39012,0.07955 -0.53076,0.220506 l -14.39511,15.456068 c -0.29318,0.293109 15.45661,-14.394568 15.45661,-14.394568 0.29318,-0.293109 0.29318,-0.768391 0,-1.0615 -0.14064,-0.141017 -0.33158,-0.220332 -0.53074,-0.220506 z m -42.69949,42.388128 -13.2289,14.29151 c -0.29317,0.29311 14.2904,-13.23001 14.2904,-13.23001 0.29319,-0.293109 0.29319,-0.768403 0,-1.0615 -0.29311,-0.293171 -0.76839,-0.293171 -1.0615,0 z m 37.02742,-42.388128 c -0.19917,1.74e-4 -0.3901,0.07955 -0.53075,0.220506 l -14.39567,15.456068 c -0.29317,0.293109 15.45607,-14.394568 15.45607,-14.394568 0.29317,-0.293109 0.29317,-0.768391 0,-1.0615 -0.14038,-0.140744 -0.33087,-0.220046 -0.52965,-0.220506 z m -36.49666,36.495554 c -0.19918,1.74e-4 -0.3901,0.07955 -0.53076,0.220506 l -13.2289,14.290964 c -0.29243,0.292973 14.2904,-13.229464 14.2904,-13.229464 0.29319,-0.293109 0.29319,-0.768391 0,-1.0615 -0.14064,-0.141017 -0.33158,-0.220332 -0.53074,-0.220506 z m 30.82348,-36.495554 c -0.19916,1.74e-4 -0.3901,0.07955 -0.53074,0.220506 L 172.222,64.078816 c -0.29317,0.293109 15.45607,-14.394568 15.45607,-14.394568 0.29317,-0.293109 0.29317,-0.768391 0,-1.0615 -0.14064,-0.141017 -0.33158,-0.220332 -0.53076,-0.220506 z m -31.35424,31.044004 -13.2289,14.290405 c -0.29317,0.293109 14.2904,-13.228905 14.2904,-13.228905 0.29319,-0.293109 0.29319,-0.768403 0,-1.0615 -0.29311,-0.293171 -0.76839,-0.293171 -1.0615,0 z m 25.68219,-31.044004 c -0.19917,1.74e-4 -0.3901,0.07955 -0.53076,0.220506 l -14.39457,15.456068 c -0.29317,0.293109 15.45607,-14.394568 15.45607,-14.394568 0.29317,-0.293109 0.29317,-0.768391 0,-1.0615 -0.14064,-0.141017 -0.33158,-0.220332 -0.53074,-0.220506 z m -25.15143,25.151429 c -0.19902,-1.24e-4 -0.38993,0.07881 -0.53076,0.2194 l -13.2289,14.291512 c -0.29317,0.293109 14.2904,-13.230012 14.2904,-13.230012 0.29319,-0.293109 0.29319,-0.768403 0,-1.0615 -0.14083,-0.140607 -0.33174,-0.219524 -0.53074,-0.2194 z m 19.47936,-25.151429 c -0.19916,1.74e-4 -0.3901,0.07955 -0.53076,0.220506 l -14.39456,15.456068 c -0.29316,0.293109 15.45608,-14.395674 15.45608,-14.395674 0.29243,-0.292985 0.29243,-0.767422 0,-1.060394 -0.14065,-0.141017 -0.3316,-0.220332 -0.53076,-0.220506 z m -19.47936,19.479373 c -0.19863,1.62e-4 -0.38909,0.07905 -0.52965,0.219388 l -13.23001,14.291511 c -0.29317,0.29311 14.2904,-13.230011 14.2904,-13.230011 0.29319,-0.293097 0.29319,-0.768391 0,-1.0615 -0.14083,-0.140607 -0.33174,-0.219524 -0.53074,-0.219388 z m 13.80729,-19.479373 c -0.19916,1.74e-4 -0.3901,0.07955 -0.53074,0.220506 l -27.03621,28.097151 c -0.29243,0.292985 28.09771,-27.036757 28.09771,-27.036757 0.29244,-0.292985 0.29244,-0.767422 0,-1.060394 -0.14065,-0.141017 -0.33158,-0.220332 -0.53076,-0.220506 z m -5.67205,0 c -0.19917,1.74e-4 -0.3901,0.07955 -0.53076,0.220506 l -21.36414,22.424536 c -0.29317,0.293109 22.42453,-21.364142 22.42453,-21.364142 0.29244,-0.292985 0.29244,-0.767422 0,-1.060394 -0.14038,-0.140744 -0.33086,-0.220046 -0.52963,-0.220506 z m -5.67318,0 c -0.19916,1.74e-4 -0.3901,0.07955 -0.53074,0.220506 l -15.69098,16.75248 c -0.29317,0.293109 16.75248,-15.69098 16.75248,-15.69098 0.29317,-0.293109 0.29317,-0.768391 0,-1.0615 -0.14066,-0.141017 -0.33159,-0.220332 -0.53076,-0.220506 z m -5.67205,0 c -0.19918,1.74e-4 -0.39012,0.07955 -0.53076,0.220506 l -14.59181,15.652186 c -0.29317,0.29311 15.65331,-14.590686 15.65331,-14.590686 0.29317,-0.293109 0.29317,-0.768391 0,-1.0615 -0.14065,-0.141017 -0.33159,-0.220332 -0.53074,-0.220506 z m -5.67207,0 c -0.19917,1.74e-4 -0.39012,0.07955 -0.53076,0.220506 l -14.56519,15.626146 c -0.29244,0.292985 15.6267,-14.564646 15.6267,-14.564646 0.29317,-0.293109 0.29317,-0.768391 0,-1.0615 -0.14065,-0.141017 -0.33159,-0.220332 -0.53075,-0.220506 z m -5.67207,0 c -0.19917,1.74e-4 -0.3901,0.07955 -0.53075,0.220506 l -14.53861,15.598999 c -0.29317,0.293109 15.60011,-14.537499 15.60011,-14.537499 0.29318,-0.293109 0.29318,-0.768391 0,-1.0615 -0.14065,-0.141017 -0.33159,-0.220332 -0.53075,-0.220506 z m -5.67318,0 c -0.19916,1.74e-4 -0.3901,0.07955 -0.53074,0.220506 l -14.51091,15.572411 c -0.29317,0.29311 15.57241,-14.512017 15.57241,-14.512017 0.29244,-0.292985 0.29244,-0.767422 0,-1.060394 -0.14064,-0.141017 -0.33158,-0.220332 -0.53076,-0.220506 z m -5.67205,0 c -0.19917,1.74e-4 -0.3901,0.07955 -0.53076,0.220506 l -14.48542,15.545824 c -0.29317,0.293109 15.54692,-14.484324 15.54692,-14.484324 0.29317,-0.293109 0.29317,-0.768391 0,-1.0615 -0.14064,-0.141017 -0.33158,-0.220332 -0.53074,-0.220506 z m -5.67207,0 c -0.19916,1.74e-4 -0.3901,0.07955 -0.53074,0.220506 l -14.45883,15.519224 c -0.29318,0.293109 15.52033,-14.45883 15.52033,-14.45883 0.29243,-0.292985 0.29243,-0.767422 0,-1.060394 -0.14065,-0.141017 -0.33158,-0.220332 -0.53076,-0.220506 z m -5.67206,0 c -0.19916,1.74e-4 -0.3901,0.07955 -0.53075,0.220506 l -14.43225,15.492636 c -0.29317,0.29311 15.49375,-14.432242 15.49375,-14.432242 0.29244,-0.292985 0.29244,-0.767422 0,-1.060394 -0.14065,-0.141017 -0.33158,-0.220332 -0.53075,-0.220506 z m -5.67317,0 c -0.19917,1.74e-4 -0.3901,0.07955 -0.53076,0.220506 L 98.471861,64.088784 c -0.29317,0.29311 15.466069,-14.404536 15.466069,-14.404536 0.29317,-0.293109 0.29317,-0.768391 0,-1.0615 -0.14066,-0.141017 -0.3316,-0.220332 -0.53076,-0.220506 z m -6.20281,0.220506 -12.670469,13.731955 c -0.29317,0.293109 13.731969,-12.670455 13.731969,-12.670455 0.29317,-0.293109 0.29317,-0.768391 0,-1.0615 -0.29311,-0.293171 -0.76839,-0.293171 -1.0615,0 z m -5.14132,-0.220506 c -0.19916,1.74e-4 -0.39009,0.07955 -0.53075,0.220506 l -9.834984,10.895368 c -0.293171,0.293109 10.896484,-9.833868 10.896484,-9.833868 0.29317,-0.293109 0.29317,-0.768391 0,-1.0615 -0.14065,-0.141017 -0.33158,-0.220332 -0.53075,-0.220506 z m -5.672079,0 c -0.19916,1.74e-4 -0.3901,0.07955 -0.53075,0.220506 l -6.998386,8.059887 8.059896,-6.998387 c 0.29317,-0.293109 0.29317,-0.768391 0,-1.0615 -0.14066,-0.141017 -0.33159,-0.220332 -0.53076,-0.220506 z m -5.672049,0 c -0.199176,1.74e-4 -0.390112,0.07955 -0.530756,0.220506 l -4.162911,5.223312 c -0.293171,0.293097 5.224411,-4.162918 5.224411,-4.162918 0.292438,-0.292985 0.292438,-0.767422 0,-1.060394 -0.140644,-0.141017 -0.331579,-0.220332 -0.530744,-0.220506 z m -5.673175,0 c -0.198624,1.74e-4 -0.389083,0.07905 -0.529644,0.2194 l -1.326326,2.387831 c -0.293172,0.293097 2.386721,-1.326331 2.386721,-1.326331 0.293172,-0.29311 0.293172,-0.768391 0,-1.0615 -0.140833,-0.140607 -0.331744,-0.219525 -0.530751,-0.2194 z M 156.32383,158.63795 c -0.19918,1.6e-4 -0.3901,0.0794 -0.53076,0.22049 l -1.64765,2.70917 c -0.29318,0.29311 2.70915,-1.64766 2.70915,-1.64766 0.29319,-0.29311 0.29319,-0.7684 0,-1.06151 -0.14064,-0.141 -0.33158,-0.22033 -0.53074,-0.22049 z m 0.001,-5.67207 c -0.199,-1.3e-4 -0.38991,0.0788 -0.53074,0.2194 l -7.32083,8.38233 c -0.29319,0.29311 8.38122,-7.32083 8.38122,-7.32083 0.29317,-0.29311 0.29317,-0.76839 0,-1.0615 -0.14057,-0.14035 -0.33103,-0.21924 -0.52965,-0.2194 z m -0.53074,-5.45267 -12.99401,14.0544 c -0.29317,0.29311 14.0544,-12.9929 14.0544,-12.9929 0.29317,-0.2931 0.29317,-0.76839 0,-1.0615 -0.29299,-0.29242 -0.76742,-0.29242 -1.06039,0 z m 0.52961,-5.89146 c -0.19902,-1.2e-4 -0.38993,0.0788 -0.53076,0.2194 l -13.2289,14.29152 c -0.29317,0.29311 14.2904,-13.23002 14.2904,-13.23002 0.29319,-0.2931 0.29319,-0.7684 0,-1.0615 -0.14083,-0.1406 -0.33174,-0.21952 -0.53074,-0.2194 z m 0,-5.67317 c -0.19918,1.7e-4 -0.3901,0.0795 -0.53076,0.22051 l -13.2289,14.29096 c -0.29243,0.29297 14.2904,-13.22946 14.2904,-13.22946 0.29319,-0.29311 0.29319,-0.76839 0,-1.0615 -0.14064,-0.14102 -0.33158,-0.22034 -0.53074,-0.22051 z m -0.53076,-5.45156 -13.2289,14.29042 c -0.29317,0.29309 14.2904,-13.22891 14.2904,-13.22891 0.29319,-0.29311 0.29319,-0.7684 0,-1.06151 -0.29311,-0.29317 -0.76839,-0.29317 -1.0615,0 z m 0,-5.67318 -13.2289,14.29153 c -0.29317,0.29311 14.2904,-13.23001 14.2904,-13.23001 0.29319,-0.29311 0.29319,-0.76841 0,-1.06152 -0.29311,-0.29317 -0.76839,-0.29317 -1.0615,0 z m 57.28907,-62.648637 c -0.19902,-1.36e-4 -0.38993,0.07881 -0.53076,0.219388 l -0.62272,1.684225 c -0.29316,0.293109 1.68422,-0.622725 1.68422,-0.622725 0.29317,-0.293097 0.29317,-0.768391 0,-1.0615 -0.14083,-0.140607 -0.33174,-0.219524 -0.53074,-0.219388 z m -57.28894,56.976587 -13.22945,14.29152 c -0.29318,0.2931 14.29095,-13.23002 14.29095,-13.23002 0.29319,-0.29311 0.29319,-0.76839 0,-1.0615 -0.29311,-0.29317 -0.76839,-0.29317 -1.0615,0 z m 54.68517,-60.045862 c -0.19917,1.62e-4 -0.3901,0.07943 -0.53076,0.220494 l -3.69144,4.752394 c -0.29317,0.293109 4.75185,-3.690881 4.75185,-3.690881 0.29317,-0.29311 0.29317,-0.768404 0,-1.061513 -0.14039,-0.140743 -0.33087,-0.220034 -0.52965,-0.220494 z m -54.15441,54.154412 c -0.19902,-1.4e-4 -0.38993,0.0788 -0.53076,0.21939 l -13.2289,14.2915 c -0.29317,0.29311 14.2904,-13.23 14.2904,-13.23 0.29319,-0.2931 0.29319,-0.7684 0,-1.0615 -0.14083,-0.14061 -0.33174,-0.21953 -0.53074,-0.21939 z m 51.5494,-57.22258 c -0.19916,1.62e-4 -0.3901,0.07955 -0.53075,0.220494 l -6.75905,7.820562 c -0.29318,0.293109 7.82055,-6.75905 7.82055,-6.75905 0.29318,-0.293109 0.29318,-0.768403 0,-1.061512 -0.14065,-0.141005 -0.33158,-0.220332 -0.53075,-0.220494 z m -52.07905,51.7699 -13.23001,14.29041 c -0.29317,0.29311 14.2904,-13.2289 14.2904,-13.2289 0.29319,-0.29311 0.29319,-0.76839 0,-1.06151 -0.29297,-0.29243 -0.76741,-0.29243 -1.06039,0 z m 49.47515,-54.836962 c -0.199,-1.25e-4 -0.38992,0.0788 -0.53075,0.2194 l -9.82721,10.888718 c -0.29318,0.293109 10.88872,-9.827218 10.88872,-9.827218 0.29317,-0.29311 0.29317,-0.768404 0,-1.0615 -0.14083,-0.140607 -0.33174,-0.219525 -0.53076,-0.2194 z m -49.47626,49.163792 -13.2289,14.29152 c -0.29317,0.29311 14.2904,-13.23002 14.2904,-13.23002 0.29319,-0.2931 0.29319,-0.76839 0,-1.0615 -0.29311,-0.29317 -0.76839,-0.29317 -1.0615,0 z m 46.87236,-52.231961 c -0.199,-1.24e-4 -0.38991,0.07881 -0.53074,0.2194 L 189.2393,64.078816 c -0.29317,0.293109 13.95689,-12.895387 13.95689,-12.895387 0.29317,-0.293109 0.29317,-0.768391 0,-1.0615 -0.14083,-0.140607 -0.33174,-0.219524 -0.53076,-0.2194 z m -46.87236,46.559897 -13.2289,14.291524 c -0.29317,0.29311 14.2904,-13.230012 14.2904,-13.230012 0.29319,-0.293109 0.29319,-0.768403 0,-1.061512 -0.29311,-0.293171 -0.76839,-0.293171 -1.0615,0 z" />
  </g>
</svg>
